<?xml version="1.0" encoding="utf-8"?>
<!-- Generator: Adobe Illustrator 26.3.1, SVG Export Plug-In . SVG Version: 6.00 Build 0)  -->
<svg version="1.1" id="Layer_1" xmlns="http://www.w3.org/2000/svg" xmlns:xlink="http://www.w3.org/1999/xlink" x="0px" y="0px"
	 viewBox="0 0 1080 1080" style="enable-background:new 0 0 1080 1080;" xml:space="preserve">
<style type="text/css">
	.st0{fill:#E5DCC7;}
</style>
<g>
	<g>
		<g>
			<path class="st0" d="M82.7,461.9c0-89.8,49.1-133.1,103.9-133.1s104.5,43.3,104.5,133.1c0,90.4-49.7,133.7-104.5,133.7
				S82.7,552.3,82.7,461.9z M197.8,587c35.6,0,73.4-27.3,65.4-125c-8-97.5-52.3-124.4-87.9-124.4c-35.3,0-72.8,26.9-64.8,124.4
				C118.6,559.7,162.5,587,197.8,587z M187.5,405.8c0,40.4,21.2,56.1,42.6,56.1c-21.5,0-42.6,17.3-42.6,56.1
				c0-38.8-22.8-56.1-42.6-56.1C164.8,461.9,187.5,446.2,187.5,405.8z"/>
			<path class="st0" d="M307.1,328.8h24l-8.7,50.3h-6.7C315.8,362.2,312.9,345.5,307.1,328.8z"/>
			<path class="st0" d="M382.2,388.2c-3.8-9.6-8-18.3-12.5-25.7v169.6c0,26.3,5.1,50.3,13.5,58.4h-33.3c8.3-8,13.5-32.1,13.5-58.4
				V351.9c-5.5-8.3-10.6-14.7-14.4-18.3h53.5c-8.3,8-2.6,29.2,6.7,56.1l51.6,149.4c1.9,4.8,4.2,9.6,6.4,14.4l75-220H580
				c-8.3,8-13.5,32.1-13.5,58.4v140.1c0,26.3,5.1,50.3,13.5,58.4h-51c8.3-8,13.5-32.1,13.5-58.4V352.6l-71.2,208.7
				c8,13.8,16.4,24,21.8,29.2h-40.7L382.2,388.2z"/>
			<path class="st0" d="M759.2,534.4L706,387.8c-3.2-7.7-6.7-15.1-10.3-21.8l-63.2,175.7c-7.4,23.4-11.5,41.7-4.2,48.7h-34
				c8.3-8,23.4-27.6,34.3-56.1L691.6,359c-7.1-11.9-14.1-20.8-18.9-25.3h39.8l73.7,202.6c10.6,26,25.3,46.5,33.3,54.2H766
				C774.3,582.5,768.5,561.3,759.2,534.4z"/>
			<path class="st0" d="M814.7,461.9c0-89.8,49.1-133.1,103.9-133.1c28.2,0,55.1,11.5,74.7,34.9l-25.7,32.4
				c-5.1-43-36.9-58.7-60.3-58.7c-35.3,0-72.8,26.9-64.8,124.4c8,97.8,51.9,127,87.2,127c24.7,0,43.3-10.9,43.3-63.8v-13.5
				c0-26.3-12.8-44.9-39.1-58.4h63.8v75c-1.3,55.1-38.2,67.3-75.7,67.3C863.8,595.6,814.7,552.3,814.7,461.9z"/>
		</g>
		<g>
			<path class="st0" d="M99.4,713.3c-3.8-2.1-6.8-5.1-8.9-8.9c-2.1-3.8-3.2-8.2-3.2-13.1c0-6.8,1.5-13,4.6-18.6
				c3.1-5.6,7.3-10,12.8-13.2c5.4-3.2,11.5-4.8,18.2-4.8c5.1,0,9.5,1.1,13.4,3.2c3.8,2.1,6.8,5.1,8.9,8.8c2.1,3.8,3.1,8.1,3.1,13
				c0,6.9-1.5,13.1-4.6,18.7c-3.1,5.6-7.3,10-12.8,13.2c-5.4,3.2-11.5,4.8-18.3,4.8C107.6,716.4,103.2,715.4,99.4,713.3z
				 M127.4,705.4c4-2.6,7.1-6.2,9.4-10.6c2.3-4.4,3.4-9.3,3.4-14.5c0-5.7-1.6-10.2-4.9-13.5s-7.8-4.9-13.4-4.9
				c-5.1,0-9.6,1.3-13.6,3.9c-4,2.6-7.1,6.1-9.3,10.6c-2.2,4.4-3.3,9.2-3.3,14.4c0,5.7,1.6,10.2,4.9,13.5c3.3,3.3,7.7,5,13.4,5
				C118.8,709.3,123.4,708,127.4,705.4z"/>
			<path class="st0" d="M159.6,679.2c2.6-3.7,5.9-6.5,9.7-8.5c3.9-2,8.1-3,12.6-3c5.8,0,10.4,1.4,13.6,4.2c3.3,2.8,5.1,6.8,5.4,11.8
				h-8.5c-0.3-2.9-1.5-5.2-3.5-6.8c-2-1.7-4.8-2.5-8.3-2.5c-4.5,0-8.4,1.5-11.7,4.6c-3.3,3.1-5.5,7.5-6.5,13.1
				c-0.3,1.9-0.4,3.5-0.4,4.8c0,4.2,1.1,7.5,3.4,9.7c2.3,2.3,5.3,3.4,9,3.4c3.5,0,6.5-0.8,9-2.4c2.6-1.6,4.5-3.9,5.9-6.9h8.5
				c-2.1,4.8-5.3,8.7-9.6,11.6c-4.3,2.9-9.3,4.4-15.1,4.4c-5.9,0-10.7-1.7-14.2-5.1c-3.5-3.4-5.2-8.1-5.2-13.9
				c0-1.8,0.2-3.6,0.5-5.5C155.2,687.1,157,682.8,159.6,679.2z"/>
			<path class="st0" d="M212.2,679.2c2.6-3.7,5.9-6.5,9.7-8.5c3.9-2,8.1-3,12.6-3c5.8,0,10.4,1.4,13.6,4.2c3.3,2.8,5.1,6.8,5.4,11.8
				H245c-0.3-2.9-1.5-5.2-3.5-6.8c-2-1.7-4.8-2.5-8.3-2.5c-4.5,0-8.4,1.5-11.7,4.6c-3.3,3.1-5.5,7.5-6.4,13.1
				c-0.3,1.9-0.4,3.5-0.4,4.8c0,4.2,1.1,7.5,3.4,9.7c2.3,2.3,5.3,3.4,9,3.4c3.5,0,6.5-0.8,9-2.4c2.6-1.6,4.5-3.9,5.9-6.9h8.5
				c-2.1,4.8-5.3,8.7-9.6,11.6c-4.3,2.9-9.4,4.4-15.1,4.4c-5.9,0-10.7-1.7-14.2-5.1c-3.5-3.4-5.2-8.1-5.2-13.9
				c0-1.8,0.2-3.6,0.5-5.5C207.8,687.1,209.5,682.8,212.2,679.2z"/>
			<path class="st0" d="M264.7,679.2c2.6-3.7,5.8-6.5,9.6-8.5c3.8-2,7.8-3,12.1-3c4.2,0,7.6,0.9,10.3,2.7c2.7,1.8,4.6,4,5.6,6.8
				l1.6-8.7h8l-8.4,47.4h-8l1.6-8.8c-2.1,2.8-4.8,5.1-8.2,6.9c-3.4,1.8-7.2,2.7-11.3,2.7c-3.7,0-7-0.8-9.8-2.4
				c-2.8-1.6-5-3.9-6.6-6.8c-1.6-2.9-2.3-6.3-2.3-10.2c0-1.7,0.2-3.5,0.5-5.3C260.3,687.1,262.1,682.8,264.7,679.2z M300.1,688.1
				c0-4.2-1.3-7.5-3.8-10c-2.5-2.5-5.7-3.7-9.6-3.7c-2.9,0-5.8,0.7-8.4,2.1c-2.7,1.4-5,3.4-6.9,6.1c-1.9,2.7-3.2,5.8-3.8,9.4
				c-0.2,1.2-0.3,2.5-0.3,4c0,4.3,1.2,7.6,3.7,10.1c2.5,2.5,5.7,3.7,9.5,3.7c2.9,0,5.8-0.7,8.4-2.1c2.7-1.4,5-3.5,6.9-6.1
				c1.9-2.7,3.2-5.8,3.9-9.4C300,690.8,300.1,689.5,300.1,688.1z"/>
			<path class="st0" d="M321.3,713.1c-3.2-2.4-4.8-5.5-4.8-9.5c0-0.8,0-1.3,0.1-1.6h7.7c-0.2,2.5,0.5,4.5,2.2,6.1
				c1.7,1.6,4.2,2.3,7.4,2.3s5.8-0.6,7.8-1.9c2-1.2,3-3,3-5.2c0-1.9-0.8-3.4-2.4-4.5c-1.6-1.1-4.1-2.3-7.4-3.5
				c-2.9-1.1-5.4-2.1-7.3-3.1c-1.9-1-3.5-2.4-4.8-4.1c-1.3-1.8-2-4-2-6.7c0-2.7,0.8-5,2.3-7.1c1.5-2.1,3.7-3.7,6.4-4.8
				c2.7-1.1,5.9-1.7,9.4-1.7c4.8,0,8.8,1.2,11.9,3.6c3.1,2.4,4.7,5.6,4.7,9.5c0,0.8,0,1.3-0.1,1.7h-7.5l0.1-1c0-2.3-0.9-4.1-2.6-5.5
				c-1.8-1.4-4.1-2-7-2c-2.8,0-5.2,0.6-7,1.9c-1.8,1.3-2.7,3-2.7,5.1c0,2,0.8,3.6,2.5,4.8c1.7,1.2,4.3,2.4,7.8,3.8
				c2.9,1.2,5.3,2.2,7.1,3.2s3.3,2.3,4.6,3.9c1.3,1.7,1.9,3.8,1.9,6.3c0,2.8-0.8,5.2-2.5,7.3c-1.6,2.1-3.9,3.7-6.8,4.8
				c-2.9,1.1-6.1,1.6-9.8,1.6C328.5,716.6,324.5,715.4,321.3,713.1z"/>
			<path class="st0" d="M378.2,668.4l-8.4,47.4H362l8.4-47.4H378.2z M372.6,659.4c-0.8-0.8-1.3-1.9-1.3-3.2c0-1.7,0.6-3.2,1.9-4.5
				c1.3-1.2,2.7-1.9,4.4-1.9c1.3,0,2.4,0.4,3.2,1.2c0.8,0.8,1.2,1.9,1.2,3.2c0,1.7-0.6,3.2-1.9,4.5c-1.3,1.2-2.7,1.9-4.4,1.9
				C374.5,660.7,373.4,660.3,372.6,659.4z"/>
			<path class="st0" d="M393.6,714.1c-3-1.6-5.4-4-7.1-6.9c-1.7-3-2.5-6.4-2.5-10.3c0-5.4,1.2-10.3,3.7-14.8s5.9-8,10.3-10.6
				c4.4-2.6,9.2-3.9,14.6-3.9c4,0,7.5,0.8,10.6,2.5c3.1,1.6,5.5,4,7.2,6.9c1.7,3,2.6,6.5,2.6,10.4c0,5.4-1.3,10.3-3.8,14.7
				c-2.5,4.4-6,8-10.4,10.6c-4.4,2.6-9.3,3.9-14.6,3.9C400.1,716.6,396.6,715.8,393.6,714.1z M415.2,706.9c3-2,5.4-4.8,7.1-8.1
				c1.7-3.4,2.6-7,2.6-10.9c0-4.4-1.3-7.7-3.8-10.1c-2.5-2.3-5.7-3.5-9.5-3.5c-3.8,0-7.1,1-10,3.1c-2.9,2-5.2,4.8-6.8,8.2
				c-1.6,3.4-2.4,7.1-2.4,11c0,4.3,1.2,7.6,3.6,9.9c2.4,2.3,5.5,3.5,9.3,3.5S412.2,708.9,415.2,706.9z"/>
			<path class="st0" d="M482.1,671.5c2.9,2.6,4.4,6.4,4.4,11.5c0,1.8-0.1,3.5-0.4,4.9l-4.9,28h-7.8l4.8-26.8
				c0.2-1.2,0.3-2.5,0.3-3.8c0-3.5-1-6.2-2.9-8.1c-1.9-1.8-4.6-2.8-8.1-2.8c-4.2,0-7.7,1.3-10.6,3.9c-2.9,2.6-4.8,6.4-5.7,11.3v-0.2
				l-4.7,26.4h-7.9l8.4-47.4h7.9l-1.2,6.8c2-2.5,4.4-4.4,7.4-5.7c2.9-1.3,6-2,9.3-2C475.3,667.5,479.2,668.8,482.1,671.5z"/>
			<path class="st0" d="M498.6,713.1c-3.2-2.4-4.8-5.5-4.8-9.5c0-0.8,0-1.3,0.1-1.6h7.7c-0.2,2.5,0.5,4.5,2.2,6.1
				c1.7,1.6,4.2,2.3,7.4,2.3s5.8-0.6,7.8-1.9c2-1.2,3-3,3-5.2c0-1.9-0.8-3.4-2.4-4.5c-1.6-1.1-4.1-2.3-7.4-3.5
				c-2.9-1.1-5.4-2.1-7.3-3.1c-1.9-1-3.5-2.4-4.8-4.1c-1.3-1.8-2-4-2-6.7c0-2.7,0.8-5,2.3-7.1c1.5-2.1,3.7-3.7,6.4-4.8
				c2.7-1.1,5.9-1.7,9.4-1.7c4.8,0,8.8,1.2,11.9,3.6c3.1,2.4,4.7,5.6,4.7,9.5c0,0.8,0,1.3-0.1,1.7h-7.5l0.1-1c0-2.3-0.9-4.1-2.6-5.5
				c-1.8-1.4-4.1-2-7-2c-2.8,0-5.2,0.6-7,1.9c-1.8,1.3-2.7,3-2.7,5.1c0,2,0.8,3.6,2.5,4.8c1.7,1.2,4.3,2.4,7.8,3.8
				c2.9,1.2,5.3,2.2,7.1,3.2s3.3,2.3,4.6,3.9c1.3,1.7,1.9,3.8,1.9,6.3c0,2.8-0.8,5.2-2.5,7.3c-1.6,2.1-3.9,3.7-6.8,4.8
				c-2.9,1.1-6.1,1.6-9.8,1.6C505.8,716.6,501.7,715.4,498.6,713.1z"/>
			<path class="st0" d="M636.8,655.9l-10.6,59.9h-7.9l7.9-44.7l-27.8,44.7h-5.5l-12.1-44.5l-7.9,44.5h-7.9l10.6-59.9h8.5l13.4,49.5
				l30.8-49.5H636.8z"/>
			<path class="st0" d="M677.7,702.4h-26.4l-7.2,13.4h-8.3l32.4-60h9.1l11.2,60h-8.3L677.7,702.4z M676.6,696.3l-5.5-30.8
				l-16.4,30.8H676.6z"/>
			<path class="st0" d="M707.2,669.7c3.5-4.7,7.8-8.4,12.9-11c5.1-2.6,10.4-3.9,16-3.9c6.5,0,11.9,1.6,16.2,4.8
				c4.4,3.2,7.2,7.6,8.4,13.4h-9.4c-1-3.5-3-6.2-5.8-8.2c-2.9-1.9-6.4-2.9-10.6-2.9c-4.2,0-8.2,1-11.9,2.9c-3.7,1.9-6.9,4.7-9.4,8.3
				c-2.5,3.6-4.2,7.8-5.1,12.5c-0.3,1.5-0.4,3.2-0.4,5.2c0,5.7,1.7,10.1,5,13.5c3.3,3.3,7.8,5,13.4,5c5.9,0,11.1-1.8,15.6-5.3
				c4.4-3.5,7.5-8.4,9.2-14.4h-24.1l1.1-6.2h32.5l-1.1,6.1c-1.3,5-3.7,9.5-7.1,13.6c-3.4,4.1-7.4,7.4-12.2,9.8
				c-4.8,2.4-9.8,3.6-15.1,3.6c-5,0-9.4-1-13.2-3.1c-3.8-2-6.8-4.9-9-8.7c-2.1-3.8-3.2-8.1-3.2-12.9c0-2,0.2-4,0.5-6.1
				C701.4,679.7,703.7,674.4,707.2,669.7z"/>
			<path class="st0" d="M808.8,671.5c2.9,2.6,4.4,6.4,4.4,11.5c0,1.8-0.1,3.5-0.4,4.9l-4.9,28H800l4.8-26.8c0.2-1.2,0.3-2.5,0.3-3.8
				c0-3.5-1-6.2-2.9-8.1c-1.9-1.8-4.6-2.8-8.1-2.8c-4.2,0-7.7,1.3-10.6,3.9c-2.9,2.6-4.8,6.4-5.7,11.3v-0.2l-4.7,26.4h-7.9l8.4-47.4
				h7.9l-1.2,6.8c2-2.5,4.4-4.4,7.4-5.7c2.9-1.3,6-2,9.3-2C801.9,667.5,805.8,668.8,808.8,671.5z"/>
			<path class="st0" d="M837,668.4l-8.4,47.4h-7.9l8.4-47.4H837z M831.3,659.4c-0.8-0.8-1.3-1.9-1.3-3.2c0-1.7,0.6-3.2,1.9-4.5
				c1.3-1.2,2.7-1.9,4.4-1.9c1.3,0,2.4,0.4,3.2,1.2c0.8,0.8,1.2,1.9,1.2,3.2c0,1.7-0.6,3.2-1.9,4.5c-1.3,1.2-2.7,1.9-4.4,1.9
				C833.2,660.7,832.2,660.3,831.3,659.4z"/>
			<path class="st0" d="M863.6,658.3c-1.6,1.4-2.7,3.6-3.2,6.7l-0.6,3.4h10l-1.1,6.5h-10l-7.3,40.9h-7.9l7.2-40.9h-6.1l1.1-6.5h6.1
				l0.6-3.4c1-5.3,3.1-9.2,6.2-11.6c3.2-2.5,7.8-3.7,13.9-3.7l-1.1,6.6C867.8,656.3,865.2,657,863.6,658.3z"/>
			<path class="st0" d="M886.8,668.4l-8.4,47.4h-7.9l8.4-47.4H886.8z M881.1,659.4c-0.8-0.8-1.3-1.9-1.3-3.2c0-1.7,0.6-3.2,1.9-4.5
				c1.3-1.2,2.7-1.9,4.4-1.9c1.3,0,2.4,0.4,3.2,1.2c0.8,0.8,1.2,1.9,1.2,3.2c0,1.7-0.6,3.2-1.9,4.5c-1.3,1.2-2.7,1.9-4.4,1.9
				C883,660.7,881.9,660.3,881.1,659.4z"/>
			<path class="st0" d="M931.1,669.9c2.9,1.5,5.1,3.7,6.7,6.4c1.5,2.7,2.3,5.9,2.3,9.4c0,1.2-0.1,2.7-0.4,4.4
				c-0.2,1.5-0.6,3.1-1.1,4.7h-37.9c-0.1,1.2-0.2,2-0.2,2.5c0,4,1.2,7.1,3.6,9.3c2.4,2.2,5.5,3.3,9.4,3.3c3.4,0,6.4-0.8,9-2.4
				c2.6-1.6,4.5-3.7,5.8-6.4h8.5c-2.1,4.6-5.3,8.3-9.6,11.1c-4.3,2.9-9.3,4.3-14.9,4.3c-5.9,0-10.7-1.7-14.3-5.2
				c-3.6-3.4-5.4-8.1-5.4-14.1c0-1.7,0.2-3.5,0.5-5.4c0.9-4.9,2.6-9.2,5.3-12.9c2.7-3.7,5.9-6.5,9.8-8.5c3.9-2,8.1-3,12.7-3
				C924.8,667.6,928.2,668.4,931.1,669.9z M932,685.9c0-3.7-1.2-6.5-3.5-8.6c-2.3-2-5.4-3-9.1-3c-4,0-7.7,1.3-11,3.9
				s-5.5,6.2-6.7,10.9h30C931.9,687.9,932,686.9,932,685.9z"/>
			<path class="st0" d="M951.9,679.2c2.6-3.7,5.8-6.5,9.7-8.5c3.8-2,7.8-3,12.1-3c3.6,0,6.9,0.9,9.8,2.6c2.9,1.7,4.9,3.9,6.1,6.7
				l4.4-25.1h8l-11.3,64.1h-8l1.6-8.9c-2,2.8-4.7,5.2-8.1,7c-3.4,1.8-7.2,2.7-11.3,2.7c-3.7,0-7-0.8-9.8-2.4c-2.8-1.6-5-3.9-6.6-6.8
				c-1.6-2.9-2.4-6.3-2.4-10.2c0-1.7,0.2-3.5,0.5-5.3C947.5,687.1,949.3,682.8,951.9,679.2z M987.3,688.1c0-4.2-1.3-7.5-3.8-10
				c-2.5-2.5-5.7-3.7-9.6-3.7c-2.9,0-5.8,0.7-8.4,2.1c-2.7,1.4-5,3.4-6.9,6.1c-1.9,2.7-3.2,5.8-3.8,9.4c-0.2,1.2-0.3,2.5-0.3,4
				c0,4.3,1.2,7.6,3.7,10.1c2.5,2.5,5.7,3.7,9.5,3.7c2.9,0,5.8-0.7,8.4-2.1c2.7-1.4,5-3.5,6.9-6.1s3.2-5.8,3.9-9.4
				C987.2,690.8,987.3,689.5,987.3,688.1z"/>
		</g>
	</g>
</g>
</svg>
