<?xml version="1.0" encoding="utf-8"?>
<!-- Generator: Adobe Illustrator 26.3.1, SVG Export Plug-In . SVG Version: 6.00 Build 0)  -->
<svg version="1.1" id="Layer_1" xmlns="http://www.w3.org/2000/svg" xmlns:xlink="http://www.w3.org/1999/xlink" x="0px" y="0px"
	 viewBox="0 0 1080 1080" style="enable-background:new 0 0 1080 1080;" xml:space="preserve">
<style type="text/css">
	.st0{fill:#FFFFFF;}
	.st1{fill:#450201;}
	.st2{fill:#E5DCC8;}
</style>
<g>
	<g>
		<g>
			<path class="st1" d="M134.8,672.9c-17.4-11-31.4-27.6-41.7-49.9c-10.4-22.3-15.6-49.3-15.6-81.1c0-31.8,5.2-58.7,15.6-80.8
				c10.4-22,24.3-38.5,41.7-49.5c17.4-11,36.5-16.5,57.2-16.5c20.7,0,40,5.6,57.5,16.5c17.6,11,31.6,27.5,42.1,49.7
				c10.5,22.2,15.7,49,15.7,80.6c0,31.8-5.2,58.8-15.7,81c-10.5,22.2-24.5,38.8-42.1,49.9c-17.6,11.1-36.7,16.6-57.5,16.6
				C171.4,689.4,152.3,683.9,134.8,672.9z M127.4,623.2c9.9,20.5,21.6,35.1,35,43.7c13.4,8.6,27.5,12.9,42.1,12.9
				c20.7,0,38.1-8.5,52.2-25.6c14-17.1,21-45.2,21-84.3c0-8.7-0.4-18-1.1-27.9c-2.8-33.7-9.3-60.8-19.3-81.1
				c-10-20.4-21.8-34.8-35.4-43.3c-13.6-8.5-27-12.4-41.6-12.4c-20.5,0-38.4,8.2-52.3,25.2c-13.9,17-20.9,44.9-20.9,83.8
				c0,8.7,0.4,18,1.1,27.9C111.2,575.6,117.5,602.7,127.4,623.2z M168.6,535.4c7.2-4.4,13.1-11.2,17.7-20.5
				c4.6-9.3,6.9-19.5,6.9-33.4c0,20.7,4.5,34.8,13.6,45c9.1,10.3,19.4,15.7,32.6,15.7c-8.3,0-15.1,2-22.3,6.4
				c-7.2,4.5-13,11.4-17.3,20.7c-4.4,9.3-6.5,19.3-6.5,33c0-13.4-2.3-23.3-6.9-32.7c-4.6-9.3-10.5-16.3-17.7-20.9
				c-7.2-4.6-13.1-6.6-20.9-6.6C155.5,542.2,161.4,539.7,168.6,535.4z"/>
		</g>
		<path class="st1" d="M251.3,660.4c0,0,28-35.6,16.3-100.4c0,0-55.5-8.2-71.2,73.6c0,0-18.1-71.8-71.8-80c0,0-6.2,73.1,23.4,102.7
			c13.4,13.4,28.6,23.6,43.2,25.7c24.3,3.4,46.7-8.2,46.7-8.2"/>
	</g>
	<g>
		<path class="st1" d="M420,409.5c7.6,0,14.3,1.3,19.9,4c5.7,2.7,10.4,6.2,14.2,10.5c3.8,4.4,6.7,9.3,8.6,14.9
			c1.9,5.6,2.9,11.3,2.9,17.1c0,5.8-1,11.5-2.9,17.1c-1.9,5.6-4.8,10.5-8.6,14.9c-3.8,4.4-8.5,7.9-14.2,10.5c-5.7,2.6-12.4,4-20,4
			c-7.6,0-14.3-1.3-20-4c-5.7-2.6-10.4-6.2-14.2-10.5c-3.8-4.4-6.6-9.3-8.6-14.9c-1.9-5.6-2.9-11.3-2.9-17.1c0-5.8,1-11.5,2.9-17.1
			c1.9-5.6,4.8-10.5,8.6-14.9c3.8-4.4,8.6-7.9,14.2-10.5C405.8,410.8,412.4,409.5,420,409.5z M420,501c5.5,0,10.3-1.3,14.4-3.8
			c4.1-2.6,7.6-6,10.3-10.2c2.7-4.3,4.8-9.1,6.2-14.5c1.4-5.4,2.1-10.9,2.1-16.5c0-5.6-0.7-11.1-2.1-16.5
			c-1.4-5.4-3.5-10.2-6.2-14.5c-2.7-4.3-6.2-7.7-10.3-10.2c-4.1-2.6-8.9-3.8-14.4-3.8c-5.5,0-10.3,1.3-14.4,3.8
			c-4.1,2.6-7.6,6-10.3,10.2c-2.7,4.3-4.8,9.1-6.1,14.5c-1.3,5.4-2,10.9-2.1,16.5c0,5.6,0.6,11.1,2,16.5c1.4,5.4,3.5,10.2,6.2,14.5
			c2.7,4.3,6.2,7.7,10.3,10.2C409.7,499.7,414.6,501,420,501z"/>
		<path class="st1" d="M504.8,433.3c-5.8,0-10.6,1.6-14.4,4.9c-3.7,3.3-6.4,7.4-8,12.3c-1.6,4.9-2.2,10.3-1.8,16
			c0.4,5.8,1.8,11.1,4.1,16c2.3,4.9,5.6,9.1,9.8,12.3c4.2,3.3,9.2,4.9,15.2,4.9c2,0,4.1-0.2,6.3-0.7c2.2-0.5,4.4-1.4,6.5-2.7
			c2.2-1.3,4.3-3.1,6.4-5.3c2.1-2.2,4.1-5.1,6-8.6l1.2,0.5c-1.4,3.3-3.2,6.2-5.3,8.6c-2.1,2.4-4.4,4.3-7,5.9
			c-2.6,1.5-5.3,2.7-8.2,3.4c-2.9,0.8-5.9,1.1-8.8,1.1c-5.3,0-10.3-0.8-14.9-2.4c-4.6-1.6-8.7-4-12.1-7c-3.5-3.1-6.2-6.7-8.2-11
			c-2-4.3-3-9.2-3-14.7c0-4.3,0.8-8.6,2.3-12.7c1.5-4.2,3.8-7.9,6.9-11.2c3.1-3.3,6.9-5.9,11.5-8c4.6-2,9.9-3,16-3
			c2.9,0,5.9,0.3,9.1,0.9c3.2,0.6,6.1,1.5,8.7,2.8c2.6,1.3,4.8,2.9,6.5,4.9c1.7,2,2.6,4.3,2.6,7c0,1.7-0.6,3-1.8,3.8
			c-1.2,0.8-2.6,1.2-4.1,1.2c-1.5,0-2.9-0.4-4.2-1.2c-1.3-0.8-1.9-2.1-1.9-3.8c0-2.5-0.5-4.7-1.4-6.5c-0.9-1.8-2.2-3.3-3.6-4.4
			c-1.5-1.1-3.1-2-5-2.5C508.3,433.6,506.5,433.3,504.8,433.3z"/>
		<path class="st1" d="M575.1,433.3c-5.8,0-10.6,1.6-14.4,4.9c-3.7,3.3-6.4,7.4-8,12.3c-1.6,4.9-2.2,10.3-1.8,16
			c0.4,5.8,1.8,11.1,4.1,16c2.3,4.9,5.6,9.1,9.8,12.3c4.2,3.3,9.2,4.9,15.2,4.9c2,0,4.1-0.2,6.3-0.7c2.2-0.5,4.4-1.4,6.5-2.7
			c2.2-1.3,4.3-3.1,6.4-5.3c2.1-2.2,4.1-5.1,6-8.6l1.2,0.5c-1.4,3.3-3.2,6.2-5.3,8.6c-2.1,2.4-4.4,4.3-7,5.9
			c-2.6,1.5-5.3,2.7-8.2,3.4c-2.9,0.8-5.9,1.1-8.8,1.1c-5.3,0-10.3-0.8-14.9-2.4c-4.6-1.6-8.7-4-12.1-7c-3.5-3.1-6.2-6.7-8.2-11
			c-2-4.3-3-9.2-3-14.7c0-4.3,0.8-8.6,2.3-12.7c1.5-4.2,3.8-7.9,6.9-11.2c3.1-3.3,6.9-5.9,11.5-8c4.6-2,9.9-3,16-3
			c2.9,0,5.9,0.3,9.1,0.9c3.2,0.6,6.1,1.5,8.7,2.8c2.6,1.3,4.8,2.9,6.5,4.9c1.7,2,2.6,4.3,2.6,7c0,1.7-0.6,3-1.8,3.8
			c-1.2,0.8-2.6,1.2-4.1,1.2c-1.5,0-2.9-0.4-4.2-1.2c-1.3-0.8-1.9-2.1-1.9-3.8c0-2.5-0.5-4.7-1.4-6.5c-0.9-1.8-2.2-3.3-3.6-4.4
			c-1.5-1.1-3.1-2-5-2.5C578.6,433.6,576.8,433.3,575.1,433.3z"/>
		<path class="st1" d="M658.1,495.9c-2.2,1.9-5.2,3.4-9.2,4.5c-4,1.1-8.1,1.7-12.4,1.7c-3.3,0-6.6-0.3-9.9-1
			c-3.3-0.7-6.2-1.8-8.8-3.2c-2.6-1.5-4.7-3.4-6.3-5.7c-1.6-2.3-2.4-5-2.4-8.2c0-3.1,0.8-5.7,2.4-7.8c1.6-2.1,3.7-3.8,6.3-5.1
			c2.6-1.3,5.6-2.4,9-3.2c3.4-0.8,6.9-1.6,10.4-2.3c3.5-0.7,7-1.5,10.4-2.2c3.4-0.8,6.4-1.8,9.1-3c2.6-1.3,4.8-2.9,6.4-4.8
			c1.6-1.9,2.4-4.4,2.4-7.3c0-2.3-0.7-4.4-2-6.3c-1.3-1.8-3-3.4-5.1-4.6c-2-1.3-4.2-2.2-6.6-2.9c-2.4-0.7-4.6-1-6.7-1
			c-4.6,0-8.2,1.2-10.7,3.6c-2.6,2.4-3.8,5.9-3.8,10.6c0,1.7-0.6,3-1.8,3.8c-1.2,0.8-2.6,1.2-4.1,1.2c-1.5,0-2.9-0.4-4.1-1.2
			c-1.2-0.8-1.8-2.1-1.8-3.8c0-2.2,0.7-4.2,2.2-6.1c1.4-1.9,3.3-3.5,5.7-4.9c2.4-1.4,5.1-2.5,8.1-3.3c3-0.8,6.1-1.2,9.2-1.2
			c7.9,0,14.2,2.2,18.8,6.7c4.6,4.5,6.9,10.8,6.9,19v35.8c0,2.2,0.5,3.7,1.5,4.7c1,1,2.3,1.5,3.8,1.5c1.9,0,3.8-0.7,5.7-2.2l0.1,0.3
			c-0.5,0.5-1.3,1.1-2.4,1.5c-1,0.5-2.2,0.9-3.5,1.3c-1.3,0.4-2.7,0.7-4.2,0.9c-1.5,0.2-2.9,0.3-4.4,0.3c-2.3,0-4.3-0.4-6-1.2
			c-1.7-0.8-2.5-2.2-2.5-4.3V495.9z M658.1,461.2c-2,0.9-4.2,1.7-6.8,2.4c-2.6,0.7-5.2,1.4-7.9,2.2c-2.7,0.8-5.3,1.6-7.9,2.6
			c-2.6,0.9-4.9,2.1-6.9,3.6c-2,1.4-3.6,3.2-4.9,5.2c-1.2,2-1.8,4.5-1.8,7.3c0,2.1,0.4,4.1,1.2,6c0.8,1.9,2,3.6,3.4,5.1
			c1.5,1.5,3.3,2.7,5.4,3.6c2.1,0.9,4.5,1.3,7.2,1.3c3.3,0,6.6-0.5,9.8-1.4c3.2-0.9,6.2-2.6,9-4.9V461.2z"/>
		<path class="st1" d="M738.9,484.7c0,3.1-0.7,5.7-2.2,7.8s-3.5,4-5.9,5.4c-2.5,1.4-5.3,2.5-8.5,3.2c-3.2,0.7-6.4,1-9.8,1
			c-3.5,0-7-0.4-10.4-1.1c-3.4-0.7-6.5-1.8-9.2-3.1c-2.7-1.3-4.9-3-6.5-5c-1.6-2-2.4-4.2-2.4-6.6c0-1.7,0.6-3,1.8-3.8
			s2.6-1.2,4.1-1.2c1.5,0,2.9,0.4,4.1,1.2c1.2,0.8,1.8,2.1,1.8,3.8c0,2.5,0.6,4.7,1.7,6.5c1.1,1.8,2.6,3.3,4.4,4.4
			c1.8,1.2,3.8,2,6.1,2.6c2.3,0.5,4.6,0.8,6.9,0.8c1.4,0,3.2-0.2,5.3-0.5c2.1-0.3,4.2-0.9,6.2-1.7c2-0.8,3.8-1.9,5.2-3.2
			c1.4-1.3,2.2-3,2.2-5c0-2.2-0.7-4.1-2-5.7c-1.3-1.7-3.1-3.2-5.3-4.7c-2.2-1.5-4.7-2.9-7.5-4.1c-2.8-1.3-5.7-2.6-8.7-3.9
			c-3-1.3-5.9-2.8-8.8-4.2c-2.9-1.5-5.4-3.1-7.7-4.9c-2.2-1.8-4.1-3.7-5.5-5.9c-1.4-2.2-2.1-4.6-2.1-7.4c0-3.1,0.7-5.7,2-7.9
			c1.3-2.2,3-4,5.2-5.4c2.2-1.4,4.6-2.4,7.4-3.1c2.8-0.7,5.7-1,8.6-1c3.1,0,6.2,0.4,9.2,1.1c3,0.7,5.6,1.8,8,3.1
			c2.4,1.3,4.3,3,5.7,4.9c1.4,1.9,2.2,4.2,2.2,6.7c0,1.7-0.6,3-1.8,3.8c-1.2,0.8-2.6,1.2-4.1,1.2c-1.5,0-2.9-0.4-4.1-1.2
			c-1.2-0.8-1.8-2.1-1.8-3.8c0-2.5-0.5-4.7-1.4-6.5c-0.9-1.8-2.2-3.3-3.6-4.5c-1.5-1.2-3.2-2-5.1-2.6c-1.9-0.5-3.8-0.8-5.8-0.8
			c-1.9,0-3.7,0.2-5.5,0.7c-1.8,0.5-3.3,1.1-4.6,2c-1.3,0.9-2.4,1.9-3.2,3.1c-0.8,1.2-1.2,2.6-1.2,4.1c0,2.2,0.6,4,1.9,5.6
			c1.3,1.6,2.9,3,4.9,4.2c2,1.3,4.3,2.5,6.9,3.6c2.6,1.2,5.3,2.4,8,3.6c3.1,1.4,6.1,2.9,9,4.4c3,1.5,5.6,3.1,8,5
			c2.4,1.8,4.3,4,5.7,6.4C738.1,478.5,738.9,481.4,738.9,484.7z"/>
		<path class="st1" d="M766.3,490.6c0,3.8,0.9,6.3,2.7,7.6c1.8,1.3,4.7,2,8.8,2v0.5H743v-0.5c4,0,7-0.7,8.8-2
			c1.8-1.3,2.8-3.8,2.8-7.6v-45.8c0-2.2-0.5-3.6-1.6-4.3c-1.1-0.7-2.3-1.1-3.8-1.1c-1.1,0-2.2,0.1-3.3,0.4c-1.1,0.3-2.1,0.5-2.9,0.7
			v-0.3l23.3-6.7V490.6z M753,410.3c0-2.2,0.7-4,2-5.4c1.3-1.3,3.1-2,5.4-2c2.1,0,3.8,0.7,5.1,2c1.3,1.3,2,3.1,2,5.4
			c0,2.2-0.7,3.9-2,5.3c-1.3,1.3-3.1,2-5.1,2c-2.2,0-4-0.7-5.4-2C753.7,414.2,753,412.5,753,410.3z"/>
		<path class="st1" d="M817.6,432.1c5.1,0,9.9,0.8,14.4,2.4c4.5,1.6,8.4,3.9,11.7,6.9c3.3,3,6,6.7,7.9,11c1.9,4.3,2.9,9.1,2.9,14.4
			c0,4.4-0.8,8.7-2.3,12.9c-1.5,4.2-3.8,7.9-6.9,11.3c-3.1,3.3-6.9,6-11.5,8c-4.6,2-10,3-16.2,3c-8.2,0-15-1.7-20.5-5.2
			c-5.5-3.5-9.6-7.8-12.3-12.9c-2.7-5.2-4.1-10.8-4.1-16.8c0-6.1,1.4-11.7,4.1-16.8c2.7-5.2,6.8-9.5,12.3-12.9
			C802.5,433.9,809.4,432.1,817.6,432.1z M817.6,500.6c4,0,7.6-1,10.6-2.9c3-1.9,5.5-4.5,7.5-7.6c2-3.1,3.5-6.7,4.5-10.8
			c1-4,1.5-8.2,1.5-12.4c0-3.6-0.5-7.4-1.3-11.3c-0.9-4-2.3-7.6-4.2-10.8c-1.9-3.3-4.4-6-7.5-8.1c-3.1-2.1-6.7-3.2-11-3.2
			c-5.3,0-9.7,1.7-13.3,5c-3.6,3.3-6.3,7.5-8,12.4c-1.8,4.9-2.7,10.3-2.7,16.2c0,5.8,0.8,11.2,2.6,16.2c1.8,4.9,4.5,9.1,8.1,12.4
			C807.8,498.9,812.3,500.6,817.6,500.6z"/>
		<path class="st1" d="M880.6,447.8c2-2.2,4-4.3,6.1-6.3c2.1-1.9,4.3-3.6,6.6-5c2.3-1.4,4.9-2.5,7.6-3.3c2.7-0.8,5.8-1.2,9.1-1.2
			c3.4,0,6.4,0.6,8.8,1.8c2.5,1.2,4.5,2.8,6.1,4.9s2.8,4.4,3.6,7.1c0.8,2.7,1.2,5.6,1.2,8.7v36.1c0,3.8,0.9,6.3,2.8,7.6
			c1.8,1.3,4.8,2,8.8,2v0.5h-34.9v-0.5c4.1,0,7.1-0.7,9-2c1.8-1.3,2.8-3.8,2.8-7.6v-34.2c0-4-0.4-7.3-1.3-10c-0.9-2.7-2-4.9-3.4-6.5
			c-1.4-1.7-3.1-2.9-4.9-3.6c-1.8-0.8-3.7-1.1-5.6-1.1c-4,0-7.8,1.4-11.5,4.2c-3.7,2.8-7.3,6.3-10.9,10.6v40.7
			c0,3.8,0.9,6.3,2.7,7.6c1.8,1.3,4.7,2,8.8,2v0.5h-34.8v-0.5c4,0,7-0.7,8.8-2c1.8-1.3,2.8-3.8,2.8-7.6v-45.8c0-2.2-0.5-3.6-1.6-4.3
			c-1.1-0.7-2.3-1.1-3.8-1.1c-1.1,0-2.2,0.1-3.3,0.4c-1.1,0.3-2.1,0.5-2.9,0.7v-0.3l23.3-6.7V447.8z"/>
		<path class="st1" d="M999.7,484.7c0,3.1-0.7,5.7-2.2,7.8s-3.5,4-5.9,5.4c-2.5,1.4-5.3,2.5-8.5,3.2c-3.2,0.7-6.4,1-9.8,1
			c-3.5,0-7-0.4-10.4-1.1c-3.4-0.7-6.5-1.8-9.2-3.1c-2.7-1.3-4.9-3-6.5-5c-1.6-2-2.4-4.2-2.4-6.6c0-1.7,0.6-3,1.8-3.8
			s2.6-1.2,4.1-1.2c1.5,0,2.9,0.4,4.1,1.2c1.2,0.8,1.8,2.1,1.8,3.8c0,2.5,0.6,4.7,1.7,6.5c1.1,1.8,2.6,3.3,4.4,4.4
			c1.8,1.2,3.8,2,6.1,2.6c2.3,0.5,4.6,0.8,6.9,0.8c1.4,0,3.2-0.2,5.3-0.5c2.1-0.3,4.2-0.9,6.2-1.7c2-0.8,3.8-1.9,5.2-3.2
			c1.4-1.3,2.2-3,2.2-5c0-2.2-0.7-4.1-2-5.7c-1.3-1.7-3.1-3.2-5.3-4.7c-2.2-1.5-4.7-2.9-7.5-4.1c-2.8-1.3-5.7-2.6-8.7-3.9
			c-3-1.3-5.9-2.8-8.8-4.2c-2.9-1.5-5.4-3.1-7.7-4.9c-2.2-1.8-4.1-3.7-5.5-5.9c-1.4-2.2-2.1-4.6-2.1-7.4c0-3.1,0.7-5.7,2-7.9
			c1.3-2.2,3-4,5.2-5.4c2.2-1.4,4.6-2.4,7.4-3.1c2.8-0.7,5.7-1,8.6-1c3.1,0,6.2,0.4,9.2,1.1c3,0.7,5.6,1.8,8,3.1
			c2.4,1.3,4.3,3,5.7,4.9c1.4,1.9,2.2,4.2,2.2,6.7c0,1.7-0.6,3-1.8,3.8c-1.2,0.8-2.6,1.2-4.1,1.2c-1.5,0-2.9-0.4-4.1-1.2
			c-1.2-0.8-1.8-2.1-1.8-3.8c0-2.5-0.5-4.7-1.4-6.5c-0.9-1.8-2.2-3.3-3.6-4.5c-1.5-1.2-3.2-2-5.1-2.6c-1.9-0.5-3.8-0.8-5.8-0.8
			c-1.9,0-3.7,0.2-5.5,0.7c-1.8,0.5-3.3,1.1-4.6,2c-1.3,0.9-2.4,1.9-3.2,3.1c-0.8,1.2-1.2,2.6-1.2,4.1c0,2.2,0.6,4,1.9,5.6
			c1.3,1.6,2.9,3,4.9,4.2c2,1.3,4.3,2.5,6.9,3.6c2.6,1.2,5.3,2.4,8,3.6c3.1,1.4,6.1,2.9,9,4.4c3,1.5,5.6,3.1,8,5
			c2.4,1.8,4.3,4,5.7,6.4C999,478.5,999.7,481.4,999.7,484.7z"/>
		<path class="st1" d="M476.5,583.1v69.3c0,3.8,0.9,6.3,2.8,7.6c1.8,1.3,4.8,2,8.8,2v0.5h-34.9v-0.5c4.1,0,7.1-0.7,8.9-2
			c1.8-1.3,2.7-3.8,2.7-7.6v-70.2L427,664l-41-81.9v70.2c0,3.8,0.9,6.3,2.8,7.6c1.8,1.3,4.8,2,8.8,2v0.5h-24.5v-0.5c4,0,7-0.7,8.8-2
			c1.8-1.3,2.8-3.8,2.8-7.6v-69.3c0-3.8-0.9-6.3-2.8-7.6c-1.8-1.3-4.8-2-8.8-2v-0.5h21.6l37.7,75.9l35-75.9h20.6v0.5
			c-4,0-7,0.7-8.8,2C477.4,576.7,476.5,579.3,476.5,583.1z"/>
		<path class="st1" d="M538.5,657.6c-2.2,1.9-5.2,3.4-9.2,4.5c-4,1.1-8.1,1.7-12.4,1.7c-3.3,0-6.6-0.3-9.9-1
			c-3.3-0.7-6.2-1.8-8.8-3.2c-2.6-1.5-4.7-3.4-6.3-5.7c-1.6-2.3-2.4-5-2.4-8.2c0-3.1,0.8-5.7,2.4-7.8c1.6-2.1,3.7-3.8,6.3-5.1
			c2.6-1.3,5.6-2.4,9-3.2c3.4-0.8,6.9-1.6,10.4-2.3c3.5-0.7,7-1.5,10.4-2.2c3.4-0.8,6.4-1.8,9.1-3c2.6-1.3,4.8-2.9,6.4-4.8
			c1.6-1.9,2.4-4.4,2.4-7.3c0-2.3-0.7-4.4-2-6.3c-1.3-1.8-3-3.4-5.1-4.6c-2-1.3-4.2-2.2-6.6-2.9c-2.4-0.7-4.6-1-6.7-1
			c-4.6,0-8.2,1.2-10.7,3.6c-2.6,2.4-3.8,5.9-3.8,10.6c0,1.7-0.6,3-1.8,3.8c-1.2,0.8-2.6,1.2-4.1,1.2c-1.5,0-2.9-0.4-4.1-1.2
			c-1.2-0.8-1.8-2.1-1.8-3.8c0-2.2,0.7-4.2,2.2-6.1c1.4-1.9,3.3-3.5,5.7-4.9c2.4-1.4,5.1-2.5,8.1-3.3c3-0.8,6.1-1.2,9.2-1.2
			c7.9,0,14.2,2.2,18.8,6.7c4.6,4.5,6.9,10.8,6.9,19v35.8c0,2.2,0.5,3.7,1.5,4.7c1,1,2.3,1.5,3.8,1.5c1.9,0,3.8-0.7,5.7-2.2l0.1,0.3
			c-0.5,0.5-1.3,1.1-2.4,1.5c-1,0.5-2.2,0.9-3.5,1.3c-1.3,0.4-2.7,0.7-4.2,0.9c-1.5,0.2-2.9,0.3-4.4,0.3c-2.3,0-4.3-0.4-6-1.2
			c-1.7-0.8-2.5-2.2-2.5-4.3V657.6z M538.5,622.9c-2,0.9-4.2,1.7-6.8,2.4c-2.6,0.7-5.2,1.4-7.9,2.2c-2.7,0.8-5.3,1.6-7.9,2.6
			c-2.6,0.9-4.9,2.1-6.9,3.6c-2,1.4-3.6,3.2-4.9,5.2c-1.2,2-1.8,4.5-1.8,7.3c0,2.1,0.4,4.1,1.2,6c0.8,1.9,2,3.6,3.4,5.1
			c1.5,1.5,3.3,2.7,5.4,3.6c2.1,0.9,4.5,1.3,7.2,1.3c3.3,0,6.6-0.5,9.8-1.4c3.2-0.9,6.2-2.6,9-4.9V622.9z"/>
		<path class="st1" d="M593.1,593.8c0.7,0,1.4,0,2,0.1c0.6,0,1.3,0.1,1.9,0.1c3.1-3.1,6.6-5.7,10.6-7.6c4-1.9,7.7-2.9,11.3-2.9
			c3.2,0,5.6,0.6,7.1,1.9c1.5,1.3,2.3,2.6,2.4,4.1c0.1,1.5-0.4,2.9-1.5,4.1c-1.1,1.3-2.5,1.9-4.3,1.9c-1,0-2-0.3-3-0.9
			c-1-0.6-2.2-1.3-3.4-2.1c-1.2-0.8-2.5-1.5-3.8-2.1c-1.3-0.6-2.8-0.9-4.3-0.9c-1.3,0-2.8,0.4-4.4,1.1c-1.6,0.7-3.3,2-5.1,3.8
			c5.5,0.6,10,2.1,13.5,4.4c3.5,2.3,6.2,5.1,7.8,8.2c1.7,3.1,2.3,6.5,2,10c-0.3,3.5-1.6,6.8-3.8,9.7c-2.2,2.9-5.5,5.3-9.6,7.3
			c-4.2,1.9-9.3,2.9-15.3,2.9c-1.3,0-3.4,0.2-6.1,0.5c-2.7,0.4-5.4,0.9-8.2,1.7c-2.8,0.8-5.2,1.8-7.3,3c-2.1,1.3-3.1,2.8-3.1,4.6
			c0,1.1,0.4,1.8,1.1,2.2c0.7,0.4,1.6,0.6,2.6,0.6c1.7,0,3.9-0.4,6.6-1.2c2.7-0.8,5.7-1.7,9.1-2.6c3.4-0.9,7-1.8,10.8-2.6
			c3.8-0.8,7.7-1.2,11.7-1.2c3.5,0,6.6,0.5,9.2,1.6c2.6,1.1,4.8,2.5,6.5,4.4c1.7,1.8,3,3.9,3.8,6.2c0.9,2.3,1.3,4.6,1.3,7.1
			c0,3.1-0.6,6-1.8,8.5c-1.2,2.5-2.7,4.7-4.7,6.5c-2,1.8-4.3,3.2-6.9,4.1c-2.7,0.9-5.5,1.4-8.6,1.4c-2.5,0-5-0.3-7.3-1
			c-2.4-0.7-4.5-1.7-6.4-3c-1.9-1.3-3.4-2.9-4.5-4.7c-1.1-1.8-1.7-4-1.7-6.4c0-1.7,0.6-3,1.8-3.8s2.6-1.3,4.1-1.3
			c1.5,0,2.9,0.4,4.1,1.3c1.2,0.9,1.8,2.1,1.8,3.8c0,2.2,0.3,4,1,5.7s1.6,3,2.8,4c1.2,1.1,2.5,1.9,3.9,2.4c1.4,0.5,3,0.8,4.6,0.8
			c1.9,0,3.7-0.4,5.5-1.1c1.8-0.7,3.3-1.7,4.6-2.9c1.3-1.2,2.4-2.7,3.2-4.3c0.8-1.7,1.2-3.5,1.2-5.5c0-1.5-0.3-3-0.9-4.5
			c-0.6-1.5-1.6-2.8-3-4c-1.3-1.2-3.1-2.1-5.1-2.8c-2.1-0.7-4.6-1-7.5-1c-3.1,0-6.1,0.3-9,0.9c-3,0.6-5.9,1.3-8.8,2.1
			c-2.9,0.8-5.8,1.5-8.7,2.1c-2.9,0.6-5.8,0.9-8.8,0.9c-1.3,0-2.7-0.2-4-0.5c-1.3-0.4-2.6-0.9-3.6-1.5c-1.1-0.7-2-1.6-2.6-2.7
			c-0.7-1.1-1-2.4-1-4c0-2.2,0.6-4.2,1.9-5.9c1.3-1.7,2.9-3.1,4.9-4.2c2-1.2,4.2-2.1,6.7-2.8c2.4-0.7,4.8-1.3,7.1-1.6
			c-5-0.9-9.2-2.6-12.4-5c-3.2-2.4-5.5-5.2-6.9-8.4c-1.4-3.1-1.9-6.4-1.5-9.8c0.4-3.4,1.7-6.5,4-9.4c2.2-2.8,5.4-5.2,9.6-7
			C582.1,594.8,587.1,593.8,593.1,593.8z M593.1,635.5c3.6,0,6.6-1,9-3c2.4-2,4.2-4.5,5.4-7.5c1.2-3,1.8-6.3,1.8-9.8
			c0-3.5-0.6-6.8-1.8-9.8c-1.2-3-3-5.5-5.4-7.5c-2.4-2-5.4-3-9-3c-3.6,0-6.6,1-9,3c-2.4,2-4.2,4.5-5.4,7.5c-1.2,3-1.8,6.3-1.8,9.8
			c0,3.5,0.6,6.8,1.8,9.8c1.2,3,3,5.5,5.4,7.5C586.5,634.5,589.5,635.5,593.1,635.5z"/>
		<path class="st1" d="M657.3,609.5c2-2.2,4-4.3,6.1-6.3c2.1-1.9,4.3-3.6,6.6-5c2.3-1.4,4.9-2.5,7.6-3.3c2.7-0.8,5.8-1.2,9.1-1.2
			c3.4,0,6.4,0.6,8.8,1.8c2.5,1.2,4.5,2.8,6.1,4.9s2.8,4.4,3.6,7.1c0.8,2.7,1.2,5.6,1.2,8.7v36.1c0,3.8,0.9,6.3,2.8,7.6
			c1.8,1.3,4.8,2,8.8,2v0.5h-34.9v-0.5c4.1,0,7.1-0.7,9-2c1.8-1.3,2.8-3.8,2.8-7.6v-34.2c0-4-0.4-7.3-1.3-10c-0.9-2.7-2-4.9-3.4-6.5
			c-1.4-1.7-3.1-2.9-4.9-3.6c-1.8-0.8-3.7-1.1-5.6-1.1c-4,0-7.8,1.4-11.5,4.2c-3.7,2.8-7.3,6.3-10.9,10.6v40.7
			c0,3.8,0.9,6.3,2.7,7.6c1.8,1.3,4.7,2,8.8,2v0.5H634v-0.5c4,0,7-0.7,8.8-2c1.8-1.3,2.8-3.8,2.8-7.6v-45.8c0-2.2-0.5-3.6-1.6-4.3
			c-1.1-0.7-2.3-1.1-3.8-1.1c-1.1,0-2.2,0.1-3.3,0.4c-1.1,0.3-2.1,0.5-2.9,0.7v-0.3l23.3-6.7V609.5z"/>
		<path class="st1" d="M743.6,652.3c0,3.8,0.9,6.3,2.7,7.6c1.8,1.3,4.7,2,8.8,2v0.5h-34.8v-0.5c4,0,7-0.7,8.8-2
			c1.8-1.3,2.8-3.8,2.8-7.6v-45.8c0-2.2-0.5-3.6-1.6-4.3c-1.1-0.7-2.3-1.1-3.8-1.1c-1.1,0-2.2,0.1-3.3,0.4c-1.1,0.3-2.1,0.5-2.9,0.7
			v-0.3l23.3-6.7V652.3z M730.2,572c0-2.2,0.7-4,2-5.4c1.3-1.3,3.1-2,5.4-2c2.1,0,3.8,0.7,5.1,2c1.3,1.3,2,3.1,2,5.4
			c0,2.2-0.7,3.9-2,5.3c-1.3,1.3-3.1,2-5.1,2c-2.2,0-4-0.7-5.4-2C730.9,575.9,730.2,574.2,730.2,572z"/>
		<path class="st1" d="M781.3,596.5v55.8c0,3.8,0.9,6.3,2.7,7.6c1.8,1.3,4.7,2,8.8,2v0.5H758v-0.5c4,0,7-0.7,8.8-2
			c1.8-1.3,2.8-3.8,2.8-7.6v-55.8h-10.1v-1.3h10.1V589c0-4.8,0.7-8.8,2.1-12.1c1.4-3.3,3.2-6,5.5-8c2.3-2.1,4.9-3.6,7.8-4.5
			c2.9-0.9,5.9-1.4,8.8-1.4c2.9,0,5.7,0.4,8.5,1.1c2.8,0.8,5.3,1.8,7.4,3.2c2.2,1.4,3.9,3,5.2,4.9c1.3,1.9,2,3.9,2,6.1
			c0,1.7-0.6,3-1.9,3.8c-1.3,0.8-2.7,1.2-4.2,1.2c-1.5,0-2.9-0.4-4.2-1.2c-1.3-0.8-1.9-2.1-1.9-3.8c0-2.3-0.4-4.4-1.2-6.1
			c-0.8-1.7-1.9-3.1-3.2-4.2c-1.3-1.1-2.8-2-4.5-2.5c-1.7-0.5-3.5-0.8-5.3-0.8c-1.7,0-3.4,0.2-5.1,0.7c-1.7,0.5-3.1,1.2-4.4,2.2
			c-1.3,1-2.4,2.2-3.2,3.5s-1.2,2.9-1.2,4.7c0,1.5,0.4,3.1,1.1,4.8c0.8,1.7,1.9,3.3,3.4,5.1v9.4h35.8v57.1c0,3.8,0.9,6.3,2.8,7.6
			c1.8,1.3,4.8,2,8.8,2v0.5h-34.9v-0.5c4.1,0,7.1-0.7,9-2c1.8-1.3,2.8-3.8,2.8-7.6v-55.8H781.3z"/>
		<path class="st1" d="M895.2,609.2l-49.6,29.5c1,3.1,2.3,6.1,3.8,8.9c1.6,2.8,3.5,5.2,5.8,7.3c2.3,2.1,4.9,3.7,7.8,4.9
			c2.9,1.2,6.1,1.8,9.6,1.8c2,0,4.1-0.2,6.3-0.7c2.2-0.5,4.4-1.4,6.5-2.7c2.2-1.3,4.3-3.1,6.4-5.3c2.1-2.2,4.1-5.1,6-8.6l1.2,0.5
			c-1.4,3.3-3.2,6.2-5.3,8.6c-2.1,2.4-4.4,4.3-7,5.9c-2.6,1.5-5.3,2.7-8.2,3.4c-2.9,0.8-5.9,1.1-8.8,1.1c-5.3,0-10.3-0.8-14.9-2.4
			c-4.6-1.6-8.7-4-12.1-7c-3.5-3.1-6.2-6.7-8.2-11c-2-4.3-3-9.2-3-14.7c0-4.3,0.8-8.6,2.3-12.7c1.5-4.2,3.8-7.9,6.9-11.2
			c3.1-3.3,6.9-5.9,11.5-8c4.6-2,9.9-3,16-3c2.9,0,5.9,0.3,9.1,0.9c3.2,0.6,6.1,1.5,8.7,2.8c2.6,1.3,4.8,2.9,6.5,4.9
			C894.3,604.2,895.2,606.5,895.2,609.2z M882.4,615.3c1-3.6,1.2-6.7,0.5-9.2c-0.6-2.6-1.7-4.6-3.2-6.3c-1.5-1.6-3.4-2.8-5.5-3.6
			c-2.2-0.8-4.3-1.1-6.3-1.1c-5.2,0-9.6,1.3-13.1,4c-3.5,2.7-6.2,6-8,10.1c-1.8,4.1-2.9,8.6-3.2,13.7c-0.3,5,0.3,9.9,1.6,14.7
			L882.4,615.3z"/>
		<path class="st1" d="M956.3,654.9c-3.9,3.6-8,6.1-12.5,7.4s-9,1.8-13.5,1.2c-4.8-0.5-8.9-1.8-12.5-3.8c-3.5-2-6.5-4.5-8.9-7.5
			c-2.4-3-4.2-6.3-5.3-9.9c-1.2-3.6-1.8-7.4-1.8-11.3c0-5.7,1.1-10.9,3.2-15.5c2.1-4.6,5-8.5,8.7-11.7c3.7-3.2,8-5.7,12.9-7.5
			c4.9-1.8,10.1-2.6,15.6-2.6c2.1,0,4.3,0.2,6.8,0.5c2.5,0.3,4.9,1.1,7.3,2.4v-21c0-2.1-0.5-3.5-1.6-4.2c-1.1-0.8-2.3-1.1-3.8-1.1
			c-1.2,0-2.3,0.1-3.4,0.4c-1.1,0.3-2.1,0.5-2.9,0.8v-0.4l23.3-6.7V651c0,2.2,0.5,3.6,1.6,4.3c1.1,0.7,2.4,1.1,3.9,1.1
			c1.1,0,2.2-0.1,3.3-0.4c1.1-0.3,2.1-0.5,2.9-0.7v0.3l-23.3,6.7V654.9z M956.3,598.1c-2.2-1.3-4.5-2.1-7-2.5
			c-2.5-0.4-4.8-0.6-6.9-0.6c-4.7,0-8.8,1-12.3,3c-3.5,2-6.4,4.6-8.8,7.8c-2.3,3.2-4.1,6.9-5.2,11c-1.1,4.1-1.7,8.2-1.7,12.5
			c0,3.5,0.5,7.1,1.5,10.9c1,3.8,2.4,7.2,4.4,10.2c1.9,3.1,4.4,5.6,7.4,7.5c3,2,6.5,3,10.6,3c2.6,0,5.4-0.6,8.4-1.8
			c3-1.2,6.2-3.2,9.6-6.1V598.1z"/>
	</g>
</g>
</svg>
