<?xml version="1.0" encoding="utf-8"?>
<!-- Generator: Adobe Illustrator 26.3.1, SVG Export Plug-In . SVG Version: 6.00 Build 0)  -->
<svg version="1.1" id="Layer_1" xmlns="http://www.w3.org/2000/svg" xmlns:xlink="http://www.w3.org/1999/xlink" x="0px" y="0px"
	 viewBox="0 0 1080 1080" style="enable-background:new 0 0 1080 1080;" xml:space="preserve">
<style type="text/css">
	.st0{fill:#FFFFFF;}
	.st1{fill:#450201;}
	.st2{fill:#E5DCC8;}
</style>
<circle cx="540" cy="540" r="447.1"/>
<g>
	<g>
		<g>
			<path class="st0" d="M462.5,599.6c-21.7-13.6-39-34.3-51.9-62c-12.9-27.7-19.3-61.3-19.3-100.9c0-39.6,6.4-73,19.3-100.4
				c12.9-27.4,30.2-47.9,51.9-61.5c21.7-13.6,45.3-20.6,71.1-20.6c25.8,0,49.7,6.9,71.5,20.6c21.8,13.6,39.3,34.2,52.3,61.8
				c13,27.5,19.6,60.9,19.6,100.2c0,39.6-6.5,73.1-19.6,100.6c-13,27.5-30.5,48.2-52.3,62c-21.8,13.8-45.6,20.7-71.4,20.7
				C507.9,620,484.2,613.2,462.5,599.6z M453.3,537.8c12.3,25.5,26.8,43.6,43.5,54.3c16.7,10.7,34.1,16,52.3,16
				c25.8,0,47.4-10.6,64.8-31.9c17.4-21.2,26.2-56.2,26.2-104.8c0-10.8-0.4-22.4-1.3-34.7c-3.5-41.9-11.5-75.5-24-100.9
				c-12.5-25.3-27.1-43.3-44-53.8c-16.9-10.5-33.6-15.5-51.7-15.5c-25.5,0-47.7,10.2-65,31.3c-17.3,21.1-25.9,55.8-25.9,104.2
				c0,10.8,0.4,22.4,1.3,34.7C433.1,478.6,441,512.3,453.3,537.8z M504.5,428.6c8.9-5.4,16.3-13.9,22-25.5
				c5.7-11.6,8.6-24.2,8.6-41.5c0,25.8,5.6,43.2,16.9,56c11.3,12.7,24.1,19.5,40.5,19.5c-10.3,0-18.8,2.4-27.7,8
				c-8.9,5.6-16.1,14.1-21.5,25.7c-5.4,11.6-8.1,24.1-8.1,41c0-16.7-2.9-29-8.6-40.6c-5.7-11.6-13-20.2-22-25.9
				c-8.9-5.7-16.3-8.2-26-8.2C488.1,437.1,495.5,434,504.5,428.6z"/>
		</g>
		<path class="st0" d="M607.3,584c0,0,34.8-44.3,20.3-124.8c0,0-68.9-10.2-88.5,91.4c0,0-22.5-89.3-89.3-99.4c0,0-7.8,90.9,29,127.7
			c16.7,16.7,35.6,29.4,53.7,31.9c30.2,4.3,58.1-10.2,58.1-10.2"/>
	</g>
	<g>
		<path class="st0" d="M373.6,649c4.7,0,8.9,0.8,12.4,2.5s6.5,3.8,8.8,6.5c2.4,2.7,4.2,5.8,5.4,9.3c1.2,3.5,1.8,7,1.8,10.6
			c0,3.6-0.6,7.2-1.8,10.6c-1.2,3.5-3,6.5-5.3,9.3c-2.3,2.7-5.3,4.9-8.8,6.5c-3.5,1.6-7.7,2.5-12.4,2.5s-8.9-0.8-12.4-2.5
			c-3.5-1.6-6.5-3.8-8.8-6.5c-2.3-2.7-4.1-5.8-5.3-9.3c-1.2-3.5-1.8-7-1.8-10.6c0-3.6,0.6-7.2,1.8-10.6c1.2-3.5,3-6.5,5.4-9.3
			c2.4-2.7,5.3-4.9,8.8-6.5C364.7,649.8,368.8,649,373.6,649z M373.6,705.9c3.4,0,6.4-0.8,9-2.4c2.6-1.6,4.7-3.7,6.4-6.4
			c1.7-2.7,3-5.7,3.9-9c0.9-3.4,1.3-6.8,1.3-10.3c0-3.5-0.4-6.9-1.3-10.3c-0.9-3.4-2.2-6.4-3.9-9c-1.7-2.7-3.8-4.8-6.4-6.4
			c-2.6-1.6-5.6-2.4-9-2.4c-3.4,0-6.4,0.8-9,2.4c-2.6,1.6-4.7,3.7-6.4,6.4c-1.7,2.7-3,5.7-3.8,9s-1.3,6.8-1.3,10.3
			c0,3.5,0.4,6.9,1.3,10.3c0.9,3.4,2.1,6.4,3.9,9c1.7,2.7,3.8,4.8,6.4,6.4C367.2,705.1,370.2,705.9,373.6,705.9z"/>
		<path class="st0" d="M426.3,663.8c-3.6,0-6.6,1-8.9,3.1c-2.3,2-4,4.6-5,7.7c-1,3.1-1.4,6.4-1.1,10c0.3,3.6,1.1,6.9,2.6,10
			c1.5,3.1,3.5,5.6,6.1,7.7c2.6,2,5.7,3.1,9.4,3.1c1.2,0,2.5-0.2,3.9-0.5c1.4-0.3,2.7-0.9,4.1-1.7c1.3-0.8,2.7-1.9,4-3.3
			c1.3-1.4,2.6-3.2,3.7-5.4l0.8,0.3c-0.9,2.1-2,3.8-3.3,5.3c-1.3,1.5-2.8,2.7-4.4,3.6c-1.6,1-3.3,1.7-5.1,2.1
			c-1.8,0.5-3.6,0.7-5.5,0.7c-3.3,0-6.4-0.5-9.3-1.5c-2.9-1-5.4-2.5-7.5-4.4c-2.2-1.9-3.8-4.2-5.1-6.9c-1.2-2.7-1.8-5.7-1.8-9.1
			c0-2.7,0.5-5.3,1.4-7.9c0.9-2.6,2.4-4.9,4.3-7c1.9-2,4.3-3.7,7.2-4.9s6.2-1.9,10-1.9c1.8,0,3.7,0.2,5.7,0.5c2,0.4,3.8,0.9,5.4,1.7
			c1.6,0.8,3,1.8,4,3c1.1,1.2,1.6,2.7,1.6,4.4c0,1.1-0.4,1.8-1.1,2.3c-0.8,0.5-1.6,0.8-2.6,0.8c-1,0-1.8-0.3-2.6-0.8
			c-0.8-0.5-1.2-1.3-1.2-2.3c0-1.6-0.3-2.9-0.9-4c-0.6-1.1-1.3-2-2.3-2.7c-0.9-0.7-2-1.2-3.1-1.5C428.4,664,427.3,663.8,426.3,663.8
			z"/>
		<path class="st0" d="M470,663.8c-3.6,0-6.6,1-8.9,3.1c-2.3,2-4,4.6-5,7.7c-1,3.1-1.4,6.4-1.1,10c0.3,3.6,1.1,6.9,2.6,10
			c1.5,3.1,3.5,5.6,6.1,7.7c2.6,2,5.7,3.1,9.4,3.1c1.2,0,2.5-0.2,3.9-0.5c1.4-0.3,2.7-0.9,4.1-1.7c1.3-0.8,2.7-1.9,4-3.3
			c1.3-1.4,2.6-3.2,3.7-5.4l0.8,0.3c-0.9,2.1-2,3.8-3.3,5.3c-1.3,1.5-2.8,2.7-4.4,3.6c-1.6,1-3.3,1.7-5.1,2.1
			c-1.8,0.5-3.6,0.7-5.5,0.7c-3.3,0-6.4-0.5-9.3-1.5c-2.9-1-5.4-2.5-7.5-4.4c-2.2-1.9-3.8-4.2-5.1-6.9c-1.2-2.7-1.8-5.7-1.8-9.1
			c0-2.7,0.5-5.3,1.4-7.9c0.9-2.6,2.4-4.9,4.3-7c1.9-2,4.3-3.7,7.2-4.9s6.2-1.9,10-1.9c1.8,0,3.7,0.2,5.7,0.5c2,0.4,3.8,0.9,5.4,1.7
			c1.6,0.8,3,1.8,4,3c1.1,1.2,1.6,2.7,1.6,4.4c0,1.1-0.4,1.8-1.1,2.3c-0.8,0.5-1.6,0.8-2.6,0.8c-1,0-1.8-0.3-2.6-0.8
			c-0.8-0.5-1.2-1.3-1.2-2.3c0-1.6-0.3-2.9-0.9-4c-0.6-1.1-1.3-2-2.3-2.7c-0.9-0.7-2-1.2-3.1-1.5C472.2,664,471.1,663.8,470,663.8z"
			/>
		<path class="st0" d="M521.6,702.7c-1.3,1.2-3.2,2.1-5.7,2.8c-2.5,0.7-5,1-7.7,1c-2.1,0-4.1-0.2-6.2-0.6c-2-0.4-3.9-1.1-5.5-2
			c-1.6-0.9-2.9-2.1-3.9-3.5c-1-1.4-1.5-3.1-1.5-5.1c0-2,0.5-3.6,1.5-4.9c1-1.3,2.3-2.3,3.9-3.2c1.6-0.8,3.5-1.5,5.6-2
			c2.1-0.5,4.3-1,6.5-1.4c2.2-0.4,4.3-0.9,6.5-1.4c2.1-0.5,4-1.1,5.7-1.9c1.6-0.8,3-1.8,4-3c1-1.2,1.5-2.7,1.5-4.6
			c0-1.5-0.4-2.8-1.3-3.9c-0.8-1.1-1.9-2.1-3.1-2.9c-1.3-0.8-2.6-1.4-4.1-1.8c-1.5-0.4-2.9-0.6-4.1-0.6c-2.8,0-5.1,0.7-6.7,2.2
			c-1.6,1.5-2.4,3.7-2.4,6.6c0,1.1-0.4,1.8-1.1,2.3c-0.8,0.5-1.6,0.8-2.6,0.8c-1,0-1.8-0.3-2.6-0.8c-0.8-0.5-1.1-1.3-1.1-2.3
			c0-1.3,0.4-2.6,1.3-3.8c0.9-1.2,2.1-2.2,3.6-3.1c1.5-0.9,3.2-1.6,5-2.1c1.9-0.5,3.8-0.8,5.7-0.8c4.9,0,8.8,1.4,11.7,4.2
			c2.9,2.8,4.3,6.7,4.3,11.8v22.3c0,1.3,0.3,2.3,1,2.9c0.6,0.6,1.4,0.9,2.4,0.9c1.2,0,2.3-0.4,3.5-1.3l0.1,0.2
			c-0.3,0.3-0.8,0.7-1.5,1c-0.6,0.3-1.4,0.6-2.2,0.8s-1.7,0.4-2.6,0.6s-1.8,0.2-2.7,0.2c-1.5,0-2.7-0.3-3.7-0.8
			c-1-0.5-1.5-1.4-1.5-2.7V702.7z M521.6,681.2c-1.2,0.6-2.6,1-4.2,1.5s-3.2,0.9-4.9,1.3c-1.7,0.5-3.3,1-4.9,1.6
			c-1.6,0.6-3,1.3-4.3,2.2c-1.3,0.9-2.3,2-3,3.2s-1.1,2.8-1.1,4.6c0,1.3,0.3,2.5,0.8,3.7c0.5,1.2,1.2,2.3,2.1,3.2
			c0.9,0.9,2,1.7,3.4,2.2c1.3,0.6,2.8,0.8,4.5,0.8c2.1,0,4.1-0.3,6.1-0.9c2-0.6,3.9-1.6,5.6-3.1V681.2z"/>
		<path class="st0" d="M571.8,695.8c0,1.9-0.5,3.5-1.4,4.9c-0.9,1.3-2.2,2.5-3.7,3.4c-1.5,0.9-3.3,1.6-5.3,2c-2,0.4-4,0.6-6.1,0.6
			c-2.2,0-4.3-0.2-6.5-0.7c-2.1-0.4-4-1.1-5.7-1.9c-1.7-0.8-3-1.9-4-3.1c-1-1.2-1.5-2.6-1.5-4.1c0-1.1,0.4-1.8,1.1-2.3
			c0.8-0.5,1.6-0.8,2.6-0.8c0.9,0,1.8,0.3,2.6,0.8c0.8,0.5,1.1,1.3,1.1,2.3c0,1.6,0.3,2.9,1,4c0.7,1.1,1.6,2,2.7,2.8
			c1.1,0.7,2.4,1.3,3.8,1.6c1.4,0.3,2.9,0.5,4.3,0.5c0.9,0,2-0.1,3.3-0.3c1.3-0.2,2.6-0.5,3.9-1c1.3-0.5,2.3-1.2,3.2-2
			c0.9-0.8,1.3-1.9,1.3-3.1c0-1.3-0.4-2.5-1.3-3.6c-0.8-1-1.9-2-3.3-2.9c-1.4-0.9-2.9-1.8-4.7-2.6c-1.8-0.8-3.6-1.6-5.4-2.4
			c-1.8-0.8-3.7-1.7-5.4-2.6c-1.8-0.9-3.4-1.9-4.8-3c-1.4-1.1-2.5-2.3-3.4-3.6c-0.9-1.3-1.3-2.9-1.3-4.6c0-1.9,0.4-3.5,1.2-4.9
			c0.8-1.4,1.9-2.5,3.2-3.4c1.3-0.9,2.9-1.5,4.6-1.9c1.7-0.4,3.5-0.6,5.4-0.6c2,0,3.9,0.2,5.7,0.7c1.8,0.4,3.5,1.1,5,1.9
			c1.5,0.8,2.7,1.9,3.6,3.1c0.9,1.2,1.3,2.6,1.3,4.1c0,1.1-0.4,1.8-1.1,2.3s-1.6,0.8-2.6,0.8c-1,0-1.8-0.3-2.6-0.8s-1.1-1.3-1.1-2.3
			c0-1.6-0.3-2.9-0.9-4.1c-0.6-1.1-1.3-2.1-2.3-2.8c-0.9-0.7-2-1.3-3.1-1.6s-2.4-0.5-3.6-0.5c-1.2,0-2.3,0.1-3.4,0.4
			c-1.1,0.3-2.1,0.7-2.9,1.2c-0.8,0.5-1.5,1.2-2,1.9c-0.5,0.8-0.8,1.6-0.8,2.6c0,1.3,0.4,2.5,1.2,3.5c0.8,1,1.8,1.9,3.1,2.6
			s2.7,1.5,4.3,2.3c1.6,0.7,3.3,1.5,4.9,2.3c1.9,0.9,3.8,1.8,5.6,2.7c1.8,0.9,3.5,2,5,3.1c1.5,1.1,2.7,2.5,3.6,4
			C571.3,691.9,571.8,693.7,571.8,695.8z"/>
		<path class="st0" d="M588.9,699.4c0,2.3,0.6,3.9,1.7,4.7c1.1,0.8,2.9,1.2,5.4,1.2v0.3h-21.6v-0.3c2.5,0,4.3-0.4,5.5-1.2
			c1.1-0.8,1.7-2.4,1.7-4.7V671c0-1.3-0.3-2.2-1-2.7c-0.7-0.4-1.5-0.7-2.3-0.7c-0.7,0-1.4,0.1-2.1,0.3c-0.7,0.2-1.3,0.3-1.8,0.4
			v-0.2l14.5-4.2V699.4z M580.6,649.5c0-1.4,0.4-2.5,1.3-3.4s2-1.3,3.4-1.3c1.3,0,2.3,0.4,3.2,1.3c0.8,0.8,1.3,2,1.3,3.4
			c0,1.3-0.4,2.4-1.3,3.3c-0.8,0.8-1.9,1.3-3.2,1.3c-1.4,0-2.5-0.4-3.4-1.3S580.6,650.9,580.6,649.5z"/>
		<path class="st0" d="M620.7,663.1c3.2,0,6.2,0.5,9,1.5c2.8,1,5.2,2.4,7.3,4.3c2.1,1.9,3.7,4.1,4.9,6.8c1.2,2.7,1.8,5.7,1.8,9
			c0,2.7-0.5,5.4-1.4,8c-1,2.6-2.4,4.9-4.3,7c-1.9,2.1-4.3,3.7-7.2,5c-2.9,1.3-6.2,1.9-10.1,1.9c-5.1,0-9.3-1.1-12.7-3.2
			c-3.4-2.1-6-4.8-7.7-8c-1.7-3.2-2.6-6.7-2.6-10.5c0-3.8,0.9-7.3,2.6-10.5c1.7-3.2,4.3-5.9,7.7-8
			C611.4,664.2,615.6,663.1,620.7,663.1z M620.7,705.6c2.5,0,4.7-0.6,6.6-1.8c1.9-1.2,3.4-2.8,4.7-4.7s2.2-4.2,2.8-6.7
			c0.6-2.5,0.9-5.1,0.9-7.7c0-2.2-0.3-4.6-0.8-7c-0.6-2.5-1.4-4.7-2.6-6.7c-1.2-2-2.8-3.7-4.6-5c-1.9-1.3-4.2-2-6.9-2
			c-3.3,0-6.1,1-8.3,3.1c-2.2,2.1-3.9,4.6-5,7.7c-1.1,3.1-1.6,6.4-1.7,10.1c0,3.6,0.5,7,1.6,10.1c1.1,3.1,2.8,5.6,5,7.7
			C614.7,704.6,617.4,705.6,620.7,705.6z"/>
		<path class="st0" d="M659.9,672.8c1.2-1.4,2.5-2.7,3.8-3.9c1.3-1.2,2.7-2.2,4.1-3.1c1.5-0.9,3-1.6,4.7-2.1
			c1.7-0.5,3.6-0.8,5.7-0.8c2.1,0,4,0.4,5.5,1.1s2.8,1.8,3.8,3c1,1.3,1.8,2.7,2.3,4.4c0.5,1.7,0.8,3.5,0.8,5.4v22.5
			c0,2.3,0.6,3.9,1.7,4.7c1.1,0.8,3,1.2,5.5,1.2v0.3H676v-0.3c2.6,0,4.4-0.4,5.6-1.2c1.1-0.8,1.7-2.4,1.7-4.7v-21.3
			c0-2.5-0.3-4.5-0.8-6.2c-0.5-1.7-1.2-3-2.1-4.1c-0.9-1-1.9-1.8-3.1-2.3c-1.1-0.5-2.3-0.7-3.5-0.7c-2.5,0-4.8,0.9-7.1,2.6
			c-2.3,1.7-4.6,3.9-6.8,6.6v25.3c0,2.3,0.6,3.9,1.7,4.7c1.1,0.8,2.9,1.2,5.4,1.2v0.3h-21.6v-0.3c2.5,0,4.3-0.4,5.5-1.2
			c1.1-0.8,1.7-2.4,1.7-4.7V671c0-1.3-0.3-2.2-1-2.7c-0.7-0.4-1.5-0.7-2.3-0.7c-0.7,0-1.4,0.1-2.1,0.3c-0.7,0.2-1.3,0.3-1.8,0.4
			v-0.2l14.5-4.2V672.8z"/>
		<path class="st0" d="M734,695.8c0,1.9-0.5,3.5-1.4,4.9c-0.9,1.3-2.2,2.5-3.7,3.4c-1.5,0.9-3.3,1.6-5.3,2c-2,0.4-4,0.6-6.1,0.6
			c-2.2,0-4.3-0.2-6.5-0.7c-2.1-0.4-4-1.1-5.7-1.9c-1.7-0.8-3-1.9-4-3.1c-1-1.2-1.5-2.6-1.5-4.1c0-1.1,0.4-1.8,1.1-2.3
			c0.8-0.5,1.6-0.8,2.6-0.8c0.9,0,1.8,0.3,2.6,0.8c0.8,0.5,1.1,1.3,1.1,2.3c0,1.6,0.3,2.9,1,4c0.7,1.1,1.6,2,2.7,2.8
			c1.1,0.7,2.4,1.3,3.8,1.6c1.4,0.3,2.9,0.5,4.3,0.5c0.9,0,2-0.1,3.3-0.3c1.3-0.2,2.6-0.5,3.9-1c1.3-0.5,2.3-1.2,3.2-2
			c0.9-0.8,1.3-1.9,1.3-3.1c0-1.3-0.4-2.5-1.3-3.6c-0.8-1-1.9-2-3.3-2.9c-1.4-0.9-2.9-1.8-4.7-2.6c-1.8-0.8-3.6-1.6-5.4-2.4
			c-1.8-0.8-3.7-1.7-5.4-2.6c-1.8-0.9-3.4-1.9-4.8-3c-1.4-1.1-2.5-2.3-3.4-3.6c-0.9-1.3-1.3-2.9-1.3-4.6c0-1.9,0.4-3.5,1.2-4.9
			c0.8-1.4,1.9-2.5,3.2-3.4c1.3-0.9,2.9-1.5,4.6-1.9c1.7-0.4,3.5-0.6,5.4-0.6c2,0,3.9,0.2,5.7,0.7c1.8,0.4,3.5,1.1,5,1.9
			c1.5,0.8,2.7,1.9,3.6,3.1c0.9,1.2,1.3,2.6,1.3,4.1c0,1.1-0.4,1.8-1.1,2.3s-1.6,0.8-2.6,0.8c-1,0-1.8-0.3-2.6-0.8s-1.1-1.3-1.1-2.3
			c0-1.6-0.3-2.9-0.9-4.1c-0.6-1.1-1.3-2.1-2.3-2.8c-0.9-0.7-2-1.3-3.1-1.6s-2.4-0.5-3.6-0.5c-1.2,0-2.3,0.1-3.4,0.4
			c-1.1,0.3-2.1,0.7-2.9,1.2c-0.8,0.5-1.5,1.2-2,1.9c-0.5,0.8-0.8,1.6-0.8,2.6c0,1.3,0.4,2.5,1.2,3.5c0.8,1,1.8,1.9,3.1,2.6
			s2.7,1.5,4.3,2.3c1.6,0.7,3.3,1.5,4.9,2.3c1.9,0.9,3.8,1.8,5.6,2.7c1.8,0.9,3.5,2,5,3.1c1.5,1.1,2.7,2.5,3.6,4
			C733.5,691.9,734,693.7,734,695.8z"/>
		<path class="st0" d="M408.7,756.9V800c0,2.3,0.6,3.9,1.7,4.7c1.1,0.8,3,1.2,5.5,1.2v0.3h-21.7v-0.3c2.6,0,4.4-0.4,5.5-1.2
			c1.1-0.8,1.7-2.4,1.7-4.7v-43.6l-23.5,50.9l-25.5-50.9V800c0,2.3,0.6,3.9,1.7,4.7c1.1,0.8,3,1.2,5.5,1.2v0.3h-15.2v-0.3
			c2.5,0,4.3-0.4,5.5-1.2c1.1-0.8,1.7-2.4,1.7-4.7v-43.1c0-2.3-0.6-3.9-1.7-4.7c-1.1-0.8-3-1.2-5.5-1.2v-0.3h13.4l23.5,47.2
			l21.8-47.2h12.8v0.3c-2.5,0-4.3,0.4-5.5,1.2C409.3,753,408.7,754.6,408.7,756.9z"/>
		<path class="st0" d="M447.2,803.2c-1.3,1.2-3.2,2.1-5.7,2.8c-2.5,0.7-5,1-7.7,1c-2.1,0-4.1-0.2-6.2-0.6c-2-0.4-3.9-1.1-5.5-2
			c-1.6-0.9-2.9-2.1-3.9-3.5c-1-1.4-1.5-3.1-1.5-5.1c0-2,0.5-3.6,1.5-4.9c1-1.3,2.3-2.3,3.9-3.2c1.6-0.8,3.5-1.5,5.6-2
			c2.1-0.5,4.3-1,6.5-1.4c2.2-0.4,4.3-0.9,6.5-1.4c2.1-0.5,4-1.1,5.7-1.9c1.6-0.8,3-1.8,4-3c1-1.2,1.5-2.7,1.5-4.6
			c0-1.5-0.4-2.8-1.3-3.9c-0.8-1.1-1.9-2.1-3.1-2.9c-1.3-0.8-2.6-1.4-4.1-1.8c-1.5-0.4-2.9-0.6-4.1-0.6c-2.8,0-5.1,0.7-6.7,2.2
			c-1.6,1.5-2.4,3.7-2.4,6.6c0,1.1-0.4,1.8-1.1,2.3c-0.8,0.5-1.6,0.8-2.6,0.8c-1,0-1.8-0.3-2.6-0.8c-0.8-0.5-1.1-1.3-1.1-2.3
			c0-1.3,0.4-2.6,1.3-3.8c0.9-1.2,2.1-2.2,3.6-3.1c1.5-0.9,3.2-1.6,5-2.1c1.9-0.5,3.8-0.8,5.7-0.8c4.9,0,8.8,1.4,11.7,4.2
			c2.9,2.8,4.3,6.7,4.3,11.8v22.3c0,1.3,0.3,2.3,1,2.9c0.6,0.6,1.4,0.9,2.4,0.9c1.2,0,2.3-0.4,3.5-1.3l0.1,0.2
			c-0.3,0.3-0.8,0.7-1.5,1c-0.6,0.3-1.4,0.6-2.2,0.8s-1.7,0.4-2.6,0.6s-1.8,0.2-2.7,0.2c-1.5,0-2.7-0.3-3.7-0.8
			c-1-0.5-1.5-1.4-1.5-2.7V803.2z M447.2,781.7c-1.2,0.6-2.6,1-4.2,1.5s-3.2,0.9-4.9,1.3c-1.7,0.5-3.3,1-4.9,1.6
			c-1.6,0.6-3,1.3-4.3,2.2c-1.3,0.9-2.3,2-3,3.2s-1.1,2.8-1.1,4.6c0,1.3,0.3,2.5,0.8,3.7c0.5,1.2,1.2,2.3,2.1,3.2
			c0.9,0.9,2,1.7,3.4,2.2c1.3,0.6,2.8,0.8,4.5,0.8c2.1,0,4.1-0.3,6.1-0.9c2-0.6,3.9-1.6,5.6-3.1V781.7z"/>
		<path class="st0" d="M481.1,763.6c0.4,0,0.9,0,1.3,0c0.4,0,0.8,0,1.2,0c1.9-2,4.1-3.5,6.6-4.7c2.5-1.2,4.8-1.8,7-1.8
			c2,0,3.5,0.4,4.4,1.2c0.9,0.8,1.4,1.6,1.5,2.6c0.1,0.9-0.3,1.8-0.9,2.6c-0.7,0.8-1.6,1.2-2.7,1.2c-0.6,0-1.2-0.2-1.9-0.6
			c-0.6-0.4-1.3-0.8-2.1-1.3s-1.5-0.9-2.4-1.3c-0.8-0.4-1.7-0.6-2.7-0.6c-0.8,0-1.7,0.2-2.7,0.7c-1,0.4-2,1.2-3.1,2.3
			c3.4,0.4,6.2,1.3,8.4,2.8c2.2,1.5,3.8,3.2,4.9,5.1c1,2,1.5,4,1.3,6.2c-0.2,2.2-1,4.2-2.4,6c-1.4,1.8-3.4,3.3-6,4.5
			c-2.6,1.2-5.8,1.8-9.5,1.8c-0.8,0-2.1,0.1-3.8,0.3c-1.7,0.2-3.4,0.6-5.1,1c-1.7,0.5-3.2,1.1-4.5,1.9c-1.3,0.8-1.9,1.7-1.9,2.8
			c0,0.7,0.2,1.1,0.7,1.4c0.4,0.3,1,0.4,1.6,0.4c1.1,0,2.4-0.3,4.1-0.8s3.6-1,5.7-1.6c2.1-0.6,4.3-1.1,6.7-1.6
			c2.4-0.5,4.8-0.8,7.2-0.8c2.2,0,4.1,0.3,5.7,1c1.6,0.7,3,1.6,4.1,2.7c1.1,1.1,1.9,2.4,2.4,3.9c0.5,1.4,0.8,2.9,0.8,4.4
			c0,2-0.4,3.7-1.1,5.3c-0.7,1.6-1.7,2.9-2.9,4c-1.2,1.1-2.7,2-4.3,2.6c-1.6,0.6-3.4,0.9-5.3,0.9c-1.6,0-3.1-0.2-4.6-0.6
			c-1.5-0.4-2.8-1-4-1.8s-2.1-1.8-2.8-2.9c-0.7-1.1-1-2.5-1-4c0-1.1,0.4-1.9,1.1-2.4s1.6-0.8,2.6-0.8c0.9,0,1.8,0.3,2.6,0.8
			s1.1,1.3,1.1,2.4c0,1.3,0.2,2.5,0.6,3.5c0.4,1,1,1.8,1.7,2.5c0.7,0.7,1.5,1.2,2.4,1.5c0.9,0.3,1.8,0.5,2.8,0.5
			c1.2,0,2.3-0.2,3.4-0.7c1.1-0.4,2.1-1,2.9-1.8s1.5-1.6,2-2.7c0.5-1,0.8-2.2,0.8-3.4c0-1-0.2-1.9-0.6-2.8c-0.4-0.9-1-1.7-1.8-2.5
			c-0.8-0.7-1.9-1.3-3.2-1.7c-1.3-0.4-2.8-0.6-4.7-0.6c-1.9,0-3.8,0.2-5.6,0.6c-1.8,0.4-3.7,0.8-5.5,1.3c-1.8,0.5-3.6,0.9-5.4,1.3
			c-1.8,0.4-3.6,0.6-5.4,0.6c-0.8,0-1.7-0.1-2.5-0.3c-0.8-0.2-1.6-0.5-2.3-1c-0.7-0.4-1.2-1-1.6-1.7c-0.4-0.7-0.6-1.5-0.6-2.5
			c0-1.4,0.4-2.6,1.2-3.6c0.8-1,1.8-1.9,3.1-2.6c1.3-0.7,2.6-1.3,4.1-1.8c1.5-0.4,3-0.8,4.4-1c-3.1-0.6-5.7-1.6-7.7-3.1
			s-3.4-3.2-4.3-5.2c-0.9-2-1.2-4-0.9-6.1c0.3-2.1,1.1-4.1,2.5-5.8c1.4-1.8,3.4-3.2,5.9-4.4C474.3,764.2,477.5,763.6,481.1,763.6z
			 M481.1,789.5c2.2,0,4.1-0.6,5.6-1.8c1.5-1.2,2.6-2.8,3.4-4.6s1.1-3.9,1.1-6.1c0-2.2-0.4-4.2-1.1-6.1c-0.8-1.9-1.9-3.4-3.4-4.6
			c-1.5-1.2-3.3-1.8-5.6-1.8c-2.2,0-4.1,0.6-5.6,1.8c-1.5,1.2-2.6,2.8-3.4,4.6c-0.8,1.9-1.1,3.9-1.1,6.1c0,2.2,0.4,4.2,1.1,6.1
			s1.9,3.4,3.4,4.6C477.1,788.9,478.9,789.5,481.1,789.5z"/>
		<path class="st0" d="M521.1,773.3c1.2-1.4,2.5-2.7,3.8-3.9c1.3-1.2,2.7-2.2,4.1-3.1c1.5-0.9,3-1.6,4.7-2.1
			c1.7-0.5,3.6-0.8,5.7-0.8c2.1,0,4,0.4,5.5,1.1s2.8,1.8,3.8,3c1,1.3,1.8,2.7,2.3,4.4c0.5,1.7,0.8,3.5,0.8,5.4V800
			c0,2.3,0.6,3.9,1.7,4.7c1.1,0.8,3,1.2,5.5,1.2v0.3h-21.7v-0.3c2.6,0,4.4-0.4,5.6-1.2c1.1-0.8,1.7-2.4,1.7-4.7v-21.3
			c0-2.5-0.3-4.5-0.8-6.2c-0.5-1.7-1.2-3-2.1-4.1c-0.9-1-1.9-1.8-3.1-2.3c-1.1-0.5-2.3-0.7-3.5-0.7c-2.5,0-4.8,0.9-7.1,2.6
			c-2.3,1.7-4.6,3.9-6.8,6.6V800c0,2.3,0.6,3.9,1.7,4.7c1.1,0.8,2.9,1.2,5.4,1.2v0.3h-21.6v-0.3c2.5,0,4.3-0.4,5.5-1.2
			c1.1-0.8,1.7-2.4,1.7-4.7v-28.5c0-1.3-0.3-2.2-1-2.7c-0.7-0.4-1.5-0.7-2.3-0.7c-0.7,0-1.4,0.1-2.1,0.3c-0.7,0.2-1.3,0.3-1.8,0.4
			v-0.2l14.5-4.2V773.3z"/>
		<path class="st0" d="M574.7,800c0,2.3,0.6,3.9,1.7,4.7c1.1,0.8,2.9,1.2,5.4,1.2v0.3h-21.6v-0.3c2.5,0,4.3-0.4,5.5-1.2
			c1.1-0.8,1.7-2.4,1.7-4.7v-28.5c0-1.3-0.3-2.2-1-2.7c-0.7-0.4-1.5-0.7-2.3-0.7c-0.7,0-1.4,0.1-2.1,0.3c-0.7,0.2-1.3,0.3-1.8,0.4
			v-0.2l14.5-4.2V800z M566.4,750.1c0-1.4,0.4-2.5,1.3-3.4s2-1.3,3.4-1.3c1.3,0,2.3,0.4,3.2,1.3c0.8,0.8,1.3,2,1.3,3.4
			c0,1.3-0.4,2.4-1.3,3.3c-0.8,0.8-1.9,1.3-3.2,1.3c-1.4,0-2.5-0.4-3.4-1.3S566.4,751.4,566.4,750.1z"/>
		<path class="st0" d="M598.2,765.3V800c0,2.3,0.6,3.9,1.7,4.7c1.1,0.8,2.9,1.2,5.4,1.2v0.3h-21.6v-0.3c2.5,0,4.3-0.4,5.5-1.2
			c1.1-0.8,1.7-2.4,1.7-4.7v-34.7h-6.3v-0.8h6.3v-3.9c0-3,0.4-5.5,1.3-7.5c0.9-2,2-3.7,3.4-5c1.4-1.3,3-2.2,4.9-2.8
			c1.8-0.6,3.6-0.9,5.5-0.9c1.8,0,3.5,0.2,5.3,0.7c1.7,0.5,3.3,1.1,4.6,2c1.3,0.9,2.4,1.9,3.2,3.1c0.8,1.2,1.2,2.4,1.2,3.8
			c0,1.1-0.4,1.8-1.2,2.3s-1.6,0.8-2.6,0.8c-1,0-1.8-0.3-2.6-0.8s-1.2-1.3-1.2-2.3c0-1.5-0.3-2.7-0.8-3.8c-0.5-1.1-1.2-1.9-2-2.6
			c-0.8-0.7-1.7-1.2-2.8-1.5c-1.1-0.3-2.2-0.5-3.3-0.5c-1.1,0-2.1,0.2-3.1,0.5c-1,0.3-2,0.8-2.8,1.4c-0.8,0.6-1.5,1.3-2,2.2
			c-0.5,0.8-0.8,1.8-0.8,2.9c0,1,0.2,1.9,0.7,3c0.5,1,1.2,2.1,2.1,3.1v5.9h22.3V800c0,2.3,0.6,3.9,1.7,4.7c1.1,0.8,3,1.2,5.5,1.2
			v0.3H606v-0.3c2.6,0,4.4-0.4,5.6-1.2c1.1-0.8,1.7-2.4,1.7-4.7v-34.7H598.2z"/>
		<path class="st0" d="M669,773.2l-30.8,18.3c0.6,2,1.4,3.8,2.4,5.5c1,1.7,2.2,3.2,3.6,4.5c1.4,1.3,3,2.3,4.9,3.1
			c1.8,0.8,3.8,1.1,6,1.1c1.2,0,2.5-0.2,3.9-0.5c1.4-0.3,2.7-0.9,4.1-1.7c1.3-0.8,2.7-1.9,4-3.3c1.3-1.4,2.6-3.2,3.7-5.4l0.8,0.3
			c-0.9,2.1-2,3.8-3.3,5.3c-1.3,1.5-2.8,2.7-4.4,3.6c-1.6,1-3.3,1.7-5.1,2.1c-1.8,0.5-3.6,0.7-5.5,0.7c-3.3,0-6.4-0.5-9.3-1.5
			c-2.9-1-5.4-2.5-7.5-4.4c-2.2-1.9-3.8-4.2-5.1-6.9c-1.2-2.7-1.8-5.7-1.8-9.1c0-2.7,0.5-5.3,1.4-7.9c0.9-2.6,2.4-4.9,4.3-7
			c1.9-2,4.3-3.7,7.2-4.9s6.2-1.9,10-1.9c1.8,0,3.7,0.2,5.7,0.5c2,0.4,3.8,0.9,5.4,1.7c1.6,0.8,3,1.8,4,3
			C668.4,770,669,771.5,669,773.2z M661,776.9c0.6-2.2,0.7-4.1,0.3-5.7c-0.4-1.6-1.1-2.9-2-3.9c-1-1-2.1-1.7-3.4-2.2
			s-2.7-0.7-3.9-0.7c-3.2,0-5.9,0.8-8.1,2.5c-2.2,1.6-3.8,3.7-5,6.3c-1.1,2.5-1.8,5.4-2,8.5c-0.2,3.1,0.2,6.2,1,9.1L661,776.9z"/>
		<path class="st0" d="M707,801.6c-2.4,2.2-5,3.8-7.7,4.6s-5.6,1.1-8.4,0.8c-3-0.3-5.5-1.1-7.7-2.4c-2.2-1.3-4.1-2.8-5.5-4.6
			c-1.5-1.8-2.6-3.9-3.3-6.2c-0.7-2.3-1.1-4.6-1.1-7c0-3.6,0.7-6.8,2-9.6c1.3-2.8,3.1-5.3,5.4-7.3c2.3-2,5-3.6,8-4.6
			c3-1.1,6.3-1.6,9.7-1.6c1.3,0,2.7,0.1,4.2,0.3c1.5,0.2,3.1,0.7,4.6,1.5v-13.1c0-1.3-0.3-2.2-1-2.6c-0.7-0.5-1.5-0.7-2.3-0.7
			c-0.7,0-1.4,0.1-2.1,0.3c-0.7,0.2-1.3,0.3-1.8,0.5v-0.3l14.5-4.2v54c0,1.3,0.3,2.2,1,2.7c0.7,0.4,1.5,0.7,2.4,0.7
			c0.7,0,1.4-0.1,2.1-0.3c0.7-0.2,1.3-0.3,1.8-0.4v0.2l-14.5,4.2V801.6z M707,766.3c-1.3-0.8-2.8-1.3-4.4-1.5
			c-1.6-0.3-3-0.4-4.3-0.4c-2.9,0-5.4,0.6-7.6,1.8c-2.2,1.2-4,2.8-5.4,4.9c-1.5,2-2.5,4.3-3.2,6.8c-0.7,2.5-1,5.1-1,7.8
			c0,2.2,0.3,4.4,0.9,6.8c0.6,2.3,1.5,4.5,2.7,6.4c1.2,1.9,2.7,3.5,4.6,4.7c1.9,1.2,4.1,1.8,6.6,1.8c1.6,0,3.4-0.4,5.2-1.1
			c1.8-0.7,3.8-2,5.9-3.8V766.3z"/>
	</g>
</g>
</svg>
